<svg xmlns="http://www.w3.org/2000/svg" xmlns:xlink="http://www.w3.org/1999/xlink" viewBox="0 0 24 24"><path d="M 0 12 C 0 18.627 5.373 24 12 24 C 18.627 24 24 18.627 24 12 C 24 5.373 18.627 0 12 0 C 5.373 0 0 5.373 0 12 Z M 13.172 18.047 C 12.731 18.488 12.019 18.488 11.583 18.047 C 11.147 17.606 11.142 16.894 11.583 16.458 L 14.911 13.13 L 6.375 13.125 C 5.752 13.125 5.25 12.623 5.25 12 C 5.25 11.377 5.752 10.875 6.375 10.875 L 14.911 10.875 L 11.583 7.547 C 11.142 7.106 11.142 6.394 11.583 5.958 C 12.023 5.522 12.736 5.517 13.172 5.958 L 18.422 11.203 C 18.862 11.644 18.862 12.356 18.422 12.792 Z" fill="#6381AD"></path></svg>